<svg xmlns="http://www.w3.org/2000/svg" xmlns:xlink="http://www.w3.org/1999/xlink" version="1.1" x="0px" y="0px" viewBox="0 0 100 125" style="enable-background:new 0 0 100 100;" xml:space="preserve"><path d="M84.9,81.1L64.6,60.7c3.7-4.8,5.9-10.7,5.9-17.2c0-15.4-12.6-28-28-28s-28,12.6-28,28s12.6,28,28,28c7.5,0,14.3-3,19.4-7.8  l20.2,20.2c0.4,0.4,0.9,0.6,1.4,0.6s1-0.2,1.4-0.6C85.7,83.1,85.7,81.9,84.9,81.1z M42.5,67.5c-13.2,0-24-10.8-24-24s10.8-24,24-24  c13.2,0,24,10.8,24,24S55.7,67.5,42.5,67.5z"/><text x="0" y="115" fill="#000000" font-size="5px" font-weight="bold" font-family="'Helvetica Neue', Helvetica, Arial-Unicode, Arial, Sans-serif">Created by Blair Adams</text><text x="0" y="120" fill="#000000" font-size="5px" font-weight="bold" font-family="'Helvetica Neue', Helvetica, Arial-Unicode, Arial, Sans-serif">from the Noun Project</text></svg>