<svg xmlns:dc="http://purl.org/dc/elements/1.1/" xmlns:cc="http://creativecommons.org/ns#" xmlns:rdf="http://www.w3.org/1999/02/22-rdf-syntax-ns#" xmlns:svg="http://www.w3.org/2000/svg" xmlns="http://www.w3.org/2000/svg" xmlns:sodipodi="http://sodipodi.sourceforge.net/DTD/sodipodi-0.dtd" xmlns:inkscape="http://www.inkscape.org/namespaces/inkscape" version="1.1" x="0px" y="0px" viewBox="0 0 100 125"><g transform="translate(0,-952.36218)"><path style="font-size:medium;font-style:normal;font-variant:normal;font-weight:normal;font-stretch:normal;text-indent:0;text-align:start;text-decoration:none;line-height:normal;letter-spacing:normal;word-spacing:normal;text-transform:none;direction:ltr;block-progression:tb;writing-mode:lr-tb;text-anchor:start;baseline-shift:baseline;opacity:1;color:#000000;fill:#000000;fill-opacity:1;stroke:none;stroke-width:2.81547546000000000;marker:none;visibility:visible;display:inline;overflow:visible;enable-background:accumulate;font-family:Sans;-inkscape-font-specification:Sans" d="M 50 7 C 26.26599 7 7 26.26594 7 50 C 7 73.734 26.26599 93 50 93 C 73.734009 93 93 73.734 93 50 C 93 26.26594 73.734009 7 50 7 z M 43.75 9.46875 C 43.770273 9.4656581 43.792218 9.4718123 43.8125 9.46875 C 39.995795 11.516852 36.646572 15.388118 34.03125 20.4375 C 33.177627 22.085581 32.38709 23.858714 31.6875 25.75 C 28.374971 24.090991 25.320259 21.985164 22.59375 19.53125 C 28.394422 14.314524 35.672927 10.70064 43.75 9.46875 z M 56.1875 9.46875 C 64.281573 10.690806 71.593505 14.277722 77.40625 19.5 C 74.677131 21.962008 71.625643 24.085827 68.3125 25.75 C 67.61291 23.858714 66.822373 22.085581 65.96875 20.4375 C 63.353428 15.388118 60.004205 11.516852 56.1875 9.46875 z M 49 9.90625 L 49 30.0625 C 43.506277 29.929386 38.283801 28.716462 33.53125 26.625 C 34.220212 24.737524 34.973807 22.963006 35.8125 21.34375 C 39.339205 14.534772 44.012313 10.398348 49 9.90625 z M 51 9.90625 C 55.987687 10.398348 60.660795 14.534772 64.1875 21.34375 C 65.026193 22.963006 65.779788 24.737524 66.46875 26.625 C 61.724127 28.716462 56.492757 29.929386 51 30.0625 L 51 9.90625 z M 21.125 20.875 C 24.086858 23.567056 27.404916 25.867747 31.03125 27.65625 C 29.703808 31.697214 28.731453 36.200235 28.1875 41 L 9.96875 41 C 11.706673 33.226574 15.664636 26.28472 21.125 20.875 z M 78.875 20.875 C 84.334745 26.284107 88.261774 33.227645 90 41 L 71.8125 41 C 71.268547 36.200235 70.296192 31.697214 68.96875 27.65625 C 72.595084 25.867747 75.913142 23.567056 78.875 20.875 z M 32.875 28.5 C 37.833585 30.659399 43.278908 31.932023 49 32.0625 L 49 41 L 30.21875 41 C 30.745981 36.499177 31.653291 32.279417 32.875 28.5 z M 67.125 28.5 C 68.346709 32.279417 69.254019 36.499177 69.78125 41 L 51 41 L 51 32.0625 C 56.721092 31.932023 62.166415 30.659399 67.125 28.5 z M 9.59375 43 L 28 43 C 27.801719 45.27805 27.6875 47.613537 27.6875 50 C 27.6875 52.386463 27.801719 54.721954 28 57 L 9.59375 57 C 9.1999778 54.717312 9 52.395587 9 50 C 9 47.614992 9.2033781 45.272736 9.59375 43 z M 30 43 L 49 43 L 49 57 L 30 57 C 29.795171 54.72421 29.6875 52.389656 29.6875 50 C 29.6875 47.610333 29.795171 45.275798 30 43 z M 51 43 L 70 43 C 70.204829 45.275798 70.3125 47.610333 70.3125 50 C 70.3125 52.389656 70.204829 54.72421 70 57 L 51 57 L 51 43 z M 72 43 L 90.40625 43 C 90.796389 45.272082 91 47.615719 91 50 C 91 52.396749 90.769146 54.716269 90.375 57 L 72 57 C 72.198281 54.721954 72.3125 52.386463 72.3125 50 C 72.3125 47.613537 72.198281 45.27805 72 43 z M 10 59 L 28.1875 59 C 28.731453 63.799756 29.703808 68.302788 31.03125 72.34375 C 27.411206 74.134857 24.083024 76.40731 21.125 79.09375 C 15.671335 73.686134 11.740726 66.764283 10 59 z M 30.21875 59 L 49 59 L 49 67.9375 C 43.279007 68.068916 37.833508 69.332739 32.875 71.5 C 31.653291 67.720589 30.745981 63.50081 30.21875 59 z M 51 59 L 69.78125 59 C 69.254019 63.50081 68.346709 67.720589 67.125 71.5 C 62.166492 69.332739 56.720993 68.068916 51 67.9375 L 51 59 z M 71.8125 59 L 90 59 C 88.259755 66.765988 84.329651 73.685156 78.875 79.09375 C 75.916976 76.40731 72.588794 74.134857 68.96875 72.34375 C 70.296192 68.302788 71.268547 63.799756 71.8125 59 z M 49 69.9375 L 49 90.09375 C 44.012313 89.601651 39.339205 85.465219 35.8125 78.65625 C 34.973807 77.036996 34.220212 75.262474 33.53125 73.375 C 38.28373 71.283561 43.506366 70.070644 49 69.9375 z M 51 69.9375 C 56.492667 70.070644 61.724198 71.283561 66.46875 73.375 C 65.779788 75.262474 65.026193 77.036996 64.1875 78.65625 C 60.660795 85.465219 55.987687 89.601651 51 90.09375 L 51 69.9375 z M 31.6875 74.25 C 32.38709 76.141287 33.177627 77.91441 34.03125 79.5625 C 36.632404 84.584481 39.959104 88.443264 43.75 90.5 C 35.665496 89.265576 28.365747 85.697379 22.5625 80.46875 C 25.29727 78.002105 28.361706 75.91566 31.6875 74.25 z M 68.3125 74.25 C 71.625642 75.91418 74.677132 78.006728 77.40625 80.46875 C 71.605846 85.68876 64.326302 89.266828 56.25 90.5 C 60.040896 88.443264 63.367596 84.584481 65.96875 79.5625 C 66.822373 77.91441 67.61291 76.141287 68.3125 74.25 z " transform="translate(0,952.36218)"/></g><text x="0" y="115" fill="#000000" font-size="5px" font-weight="bold" font-family="'Helvetica Neue', Helvetica, Arial-Unicode, Arial, Sans-serif">Created by Jasfart</text><text x="0" y="120" fill="#000000" font-size="5px" font-weight="bold" font-family="'Helvetica Neue', Helvetica, Arial-Unicode, Arial, Sans-serif">from the Noun Project</text></svg>